<svg width="40" height="41" viewBox="0 0 40 41" fill="none" xmlns="http://www.w3.org/2000/svg">
<path fill-rule="evenodd" clip-rule="evenodd" d="M36 2.5H4C2.89543 2.5 2 3.39543 2 4.5V25.7667L14.6547 22.8139C15.5486 22.6053 16.4635 22.5 17.3814 22.5H22.6186C23.5365 22.5 24.4514 22.6053 25.3453 22.8139L38 25.7667V4.5C38 3.39543 37.1046 2.5 36 2.5ZM4 0.5C1.79086 0.5 0 2.29086 0 4.5V36.5C0 38.7091 1.79086 40.5 4 40.5H36C38.2091 40.5 40 38.7091 40 36.5V4.5C40 2.29086 38.2091 0.5 36 0.5H4ZM10.9091 15.0455C12.9174 15.0455 14.5455 13.4174 14.5455 11.4091C14.5455 9.40079 12.9174 7.77273 10.9091 7.77273C8.90082 7.77273 7.27276 9.40079 7.27276 11.4091C7.27276 13.4174 8.90082 15.0455 10.9091 15.0455Z" fill="#DEDFE4"/>
</svg>
